<svg version="1.1" id="Layer_1" xmlns="http://www.w3.org/2000/svg" xmlns:xlink="http://www.w3.org/1999/xlink" x="0px" y="0px"
	 width="100%" viewBox="0 0 231 280" enable-background="new 0 0 231 280" xml:space="preserve">
<path fill="#000000" opacity="1.000000" stroke="none" 
	d="
M1.000000,107.000000 
	C1.000000,71.333336 1.000000,36.166676 1.000000,1.000010 
	C77.999985,1.000006 154.999969,1.000006 231.999969,1.000003 
	C231.999969,94.333313 231.999969,187.666626 231.999985,280.999939 
	C155.000031,280.999969 78.000069,280.999969 1.000051,281.000000 
	C1.000000,223.166672 1.000000,165.333328 1.000000,107.000000 
M137.963715,53.099689 
	C138.941681,50.722115 139.919647,48.344536 141.419403,45.656364 
	C141.935120,45.054855 142.450836,44.453346 143.811874,43.849205 
	C146.626343,43.817352 149.559204,43.327484 150.609009,47.210049 
	C150.778748,47.837780 152.790405,48.417503 153.857315,48.282413 
	C163.583923,47.050831 164.031204,47.269810 167.100021,56.210503 
	C167.313934,56.833733 167.246048,57.701797 167.656006,58.084972 
	C169.885559,60.168861 169.110245,61.885845 167.108475,63.429276 
	C163.890594,65.910355 164.731781,68.609261 166.863678,71.087219 
	C168.669952,73.186691 170.862595,74.953758 173.391830,77.348511 
	C176.059250,73.847252 178.402481,70.771530 180.961121,67.413071 
	C186.041580,75.596069 183.205933,83.807335 175.365891,86.127731 
	C169.480499,87.869614 165.617218,94.776161 167.392090,100.382843 
	C169.941772,108.437195 166.608994,115.479088 158.521439,119.125748 
	C153.259537,121.498329 150.782990,125.588051 151.146561,131.304489 
	C151.589630,138.270950 151.124008,138.749908 144.443253,138.300232 
	C144.182205,138.282654 143.899078,138.593155 143.637604,138.744217 
	C142.858185,144.159866 144.169754,146.700165 147.930176,147.889465 
	C151.027863,148.869171 154.095535,150.037415 157.021835,151.443924 
	C161.603668,153.646118 163.027527,153.176590 164.950089,148.556595 
	C165.479813,147.283676 166.225174,145.633163 167.314453,145.145798 
	C170.958649,143.515488 182.385818,146.428268 184.805084,149.591568 
	C185.449188,150.433731 185.529175,152.698395 184.884659,153.380081 
	C179.086533,159.512497 166.525528,164.498871 158.252930,157.281128 
	C156.298325,155.575775 153.774002,154.530746 151.539703,153.137131 
	C146.831329,150.200394 145.052979,150.756393 144.281296,156.217010 
	C143.531296,161.524139 143.521286,166.935837 143.132782,173.159805 
	C137.559372,173.159805 131.440567,173.015213 125.338600,173.271637 
	C123.982407,173.328629 121.562347,174.782455 121.550331,175.620667 
	C121.489006,179.897156 121.605522,184.285690 122.551712,188.431473 
	C123.270279,191.579956 122.916008,193.711594 120.749733,196.059814 
	C119.819748,197.067886 119.372162,200.273865 119.760834,200.478699 
	C124.469383,202.960327 122.167274,206.224503 121.027603,209.348526 
	C118.980804,214.959106 119.893700,220.448730 123.542625,224.716980 
	C128.785385,230.849579 134.940811,236.194702 140.542664,242.033325 
	C141.750229,243.291946 142.852371,245.179489 142.967300,246.848633 
	C143.205582,250.309067 145.173798,250.795410 147.846207,250.536057 
	C153.161819,250.020126 157.354309,241.859604 152.925980,236.379700 
	C150.815536,233.768051 149.984238,229.982315 149.066238,226.594894 
	C148.413406,224.185898 148.892944,221.481888 148.323929,219.035889 
	C147.067551,213.634979 149.350754,210.310745 154.961517,209.918930 
	C156.698929,209.797607 158.437073,209.686615 160.178299,209.570663 
	C159.334076,199.691299 160.652740,191.298340 169.025055,185.442490 
	C176.753967,180.036667 176.686615,179.948532 182.327881,187.328903 
	C182.477753,187.524994 182.928391,187.491226 183.620621,187.654953 
	C184.643616,186.281296 187.037247,184.225494 186.666595,183.376526 
	C184.288788,177.930130 181.304703,172.748428 178.323212,167.107712 
	C179.280258,166.231049 180.576309,165.043839 181.803131,163.920059 
	C187.225754,167.800507 194.741653,166.465088 198.847809,161.668335 
	C200.583725,159.640472 203.689636,157.021103 205.982269,159.784470 
	C208.553284,162.883362 210.665588,162.519943 213.156372,161.463409 
	C217.067429,151.791794 213.716599,144.604279 206.745636,138.172714 
	C203.631760,135.299774 201.200333,131.629990 198.776703,128.103607 
	C198.115219,127.141144 198.228439,125.224731 198.728806,124.067101 
	C198.970703,123.507423 201.497360,123.113937 202.025314,123.630569 
	C205.868378,127.391121 210.574524,125.860252 214.851379,125.692162 
	C218.423981,125.551750 221.007248,123.161568 221.597382,120.416847 
	C218.167664,117.066284 215.400513,114.362747 212.633011,111.659576 
	C212.162781,111.200302 211.746216,110.427605 211.211334,110.333977 
	C206.966064,109.590805 205.500961,106.499649 204.264679,102.880920 
	C203.442474,100.474289 202.098755,98.964622 198.652771,99.608994 
	C193.995621,100.479851 188.090256,95.121262 189.238159,91.106339 
	C191.058868,84.738205 190.836304,77.933060 195.010193,71.969604 
	C199.650452,65.339859 203.952286,58.214817 204.677460,49.641220 
	C204.954010,46.371368 204.021805,44.260242 200.843613,43.879673 
	C196.226883,43.326851 191.376282,41.628605 187.294861,45.810940 
	C186.487961,46.637768 184.892258,46.833321 183.615128,47.038258 
	C178.655182,47.834190 173.676987,48.516506 169.047531,49.191273 
	C167.737274,47.679173 166.613617,45.561184 164.853073,44.515461 
	C160.731918,42.067631 156.305420,40.133888 151.817123,37.531109 
	C151.618439,37.241989 151.346771,37.064705 150.943253,36.277008 
	C149.910858,34.023827 148.878479,31.770645 147.780624,29.374567 
	C143.623932,32.905415 140.760452,37.419453 134.998779,37.001244 
	C134.998779,37.001244 135.009521,36.994957 134.897476,36.304516 
	C131.317032,31.385889 126.832909,27.475576 121.612190,24.344149 
	C121.612190,24.344149 121.562927,24.346836 121.214111,23.905218 
	C120.287186,24.063370 119.360268,24.221519 118.391556,24.367786 
	C118.391556,24.367786 118.380981,24.409931 117.861031,24.828939 
	C114.902779,26.637899 111.944519,28.446859 108.331841,30.114151 
	C107.887054,30.076401 107.442261,30.038651 106.895813,29.328230 
	C105.252060,27.574617 103.608299,25.821005 101.986855,24.014521 
	C101.986855,24.014521 101.933258,24.035036 101.634567,23.366732 
	C99.480171,23.378918 96.439285,22.492247 95.341057,23.575346 
	C92.300537,26.574015 89.386894,26.272675 85.881073,24.227291 
	C82.237518,23.164585 78.593964,22.101877 74.113884,20.795181 
	C71.215958,23.731571 67.300713,22.976595 63.477036,20.271250 
	C59.688526,17.590790 55.983334,14.792573 52.030704,11.891201 
	C50.774933,12.944710 49.093430,13.665837 48.623932,14.862490 
	C45.824818,21.996754 40.957043,19.266657 36.287766,17.700668 
	C35.041203,17.282593 33.774700,16.358299 32.584183,16.458719 
	C30.240978,16.656364 26.947565,16.622988 25.805424,18.071505 
	C21.402536,23.655445 16.012514,28.925228 15.205918,36.963047 
	C13.889283,38.329754 12.572649,39.696457 11.256014,41.063164 
	C13.306267,42.652962 15.151335,45.148113 17.444124,45.667744 
	C25.228035,47.431850 33.170177,48.497795 41.275307,50.432407 
	C42.221287,51.275921 43.167271,52.119431 44.217827,53.722149 
	C45.808971,58.424068 47.801941,63.038387 48.852608,67.858131 
	C49.575405,71.173828 49.222187,74.794716 48.919041,78.241302 
	C48.672291,81.046684 47.315308,83.577126 43.880676,82.935677 
	C39.264675,82.073593 34.743553,80.712997 30.142706,79.753357 
	C29.039291,79.523216 26.913677,79.767418 26.766954,80.251122 
	C26.403997,81.447701 26.486080,83.217377 27.182768,84.186134 
	C28.048973,85.390579 29.713108,86.021172 31.249666,87.463097 
	C31.861153,87.965385 32.472641,88.467674 33.309998,89.574867 
	C34.218628,90.023010 35.127262,90.471146 36.020550,90.975899 
	C36.020550,90.975899 36.077114,90.960335 36.337402,91.598824 
	C38.838074,93.983429 41.224709,96.508217 43.896786,98.682137 
	C44.933739,99.525780 46.615788,99.576500 48.191605,100.455307 
	C48.466808,100.634750 48.742012,100.814194 49.296730,101.616714 
	C51.206402,102.867798 53.294643,103.917313 54.985592,105.415298 
	C57.805313,107.913254 61.420410,110.260246 62.763683,113.479118 
	C64.267281,117.082184 66.288307,117.836708 69.423759,117.844757 
	C73.048615,117.854065 73.908302,115.141983 73.719704,112.458778 
	C73.568130,110.302299 72.630569,107.977821 71.400703,106.162109 
	C67.674110,100.660339 65.929306,94.646263 65.808670,88.084641 
	C65.743050,84.515533 67.370270,83.502693 70.870071,84.238098 
	C74.867264,85.078041 78.978386,85.375824 83.027969,85.968307 
	C83.027969,85.968307 83.086998,85.955910 83.329216,86.593628 
	C88.775826,94.134995 99.251816,95.231148 105.974838,88.966125 
	C105.974838,88.966125 105.958443,88.908417 106.633751,88.841797 
	C108.029312,87.867165 109.424873,86.892525 110.931068,85.902672 
	C110.931068,85.902672 110.915848,85.792030 111.643204,85.764381 
	C115.807182,82.192711 116.162880,79.599556 112.774940,75.596069 
	C112.493210,75.405319 112.211487,75.214561 111.793808,74.274345 
	C108.238083,70.154915 110.542824,66.054504 112.359413,61.770889 
	C112.559204,61.470177 112.758987,61.169464 113.820686,60.839653 
	C119.388474,59.897594 122.683174,62.625774 124.402870,67.599632 
	C126.116188,72.555016 129.332993,74.797630 134.619461,73.919106 
	C135.753723,73.730606 137.031616,74.163231 138.092667,73.829987 
	C140.058762,73.212502 141.913651,72.240944 143.814865,71.416847 
	C142.214691,69.597900 140.932709,67.220421 138.942291,66.086487 
	C135.680344,64.228165 131.968231,63.151302 128.427017,61.794357 
	C124.828796,60.415562 124.044899,58.070141 126.588821,54.781456 
	C127.053772,54.725132 127.518730,54.668808 128.847534,54.768559 
	C131.737701,54.359013 134.627884,53.949463 137.469620,53.472347 
	C137.469620,53.472347 137.402069,53.520771 137.963715,53.099689 
M115.484146,271.060486 
	C115.255302,271.060944 115.026451,271.061432 114.355598,270.994568 
	C113.618744,271.042633 112.881889,271.090729 111.665604,271.038940 
	C111.022842,271.096161 110.380089,271.153381 109.182907,271.413422 
	C106.124374,273.857849 107.436989,275.184265 110.436508,275.720062 
	C112.180855,276.031677 114.073242,276.097687 115.796967,275.757324 
	C117.178841,275.484467 118.406982,274.433075 119.703346,273.727142 
	C118.525795,272.839233 117.348244,271.951355 115.484146,271.060486 
M90.579964,271.033478 
	C90.381729,271.023682 90.183487,271.013916 89.270912,271.013397 
	C88.558647,271.065399 87.846375,271.117432 86.607826,270.780060 
	C86.245270,270.532562 85.882706,270.285065 85.094826,270.495117 
	C84.928284,271.870758 84.761734,273.246429 84.595192,274.622040 
	C89.016060,275.004028 93.438599,275.622650 97.856537,275.591309 
	C98.881599,275.584045 99.890945,273.360291 100.944366,272.105927 
	C100.944366,272.105927 100.828400,272.092987 100.193810,272.152802 
	C96.801994,274.989990 94.226707,271.048492 90.579964,271.033478 
M47.450050,272.722656 
	C43.850410,270.326385 43.474628,272.370056 43.682941,275.616028 
	C46.603455,275.583069 50.028893,276.940735 50.718246,272.208832 
	C53.826248,273.760803 56.506069,278.895203 59.509502,274.695648 
	C63.995762,275.194031 67.695358,275.604980 72.193893,276.104706 
	C67.184837,268.208710 62.846752,267.469147 57.046593,272.361481 
	C54.176189,271.149963 51.421997,269.987488 48.377865,268.702606 
	C48.177849,270.359772 48.022362,271.647980 47.450050,272.722656 
M178.837769,271.572723 
	C176.977417,271.690369 175.117050,271.808014 172.718735,271.959686 
	C172.107498,275.377625 172.781937,275.999847 179.682648,275.625519 
	C180.965118,275.555939 182.177704,274.197693 183.422531,273.434174 
	C182.072815,272.709503 180.723099,271.984833 178.837769,271.572723 
M139.875656,270.070892 
	C138.509491,270.534760 137.143341,270.998627 135.777191,271.462463 
	C136.373215,272.189362 136.969238,272.916260 137.565262,273.643127 
	C139.729614,274.322693 141.861099,275.306091 144.073105,275.545441 
	C145.082581,275.654724 146.250916,274.295990 147.347198,273.603088 
	C146.375946,272.472504 145.602646,270.956116 144.374619,270.326050 
	C143.271835,269.760223 141.669312,270.168365 139.875656,270.070892 
M159.491272,272.595215 
	C159.629410,276.054352 162.120636,275.958801 164.341415,275.379272 
	C164.895798,275.234619 165.554977,272.545380 165.041565,271.796692 
	C163.373444,269.363953 161.441605,270.238800 159.491272,272.595215 
M122.407616,272.669067 
	C122.495308,272.927155 122.582993,273.185211 122.670692,273.443298 
	C122.626328,273.169342 122.581970,272.895355 122.407616,272.669067 
M76.343956,270.720490 
	C76.343956,270.720490 76.293549,271.042694 76.293549,271.042694 
	C76.293549,271.042694 76.443909,270.751709 76.343956,270.720490 
M79.513527,270.984955 
	C79.513527,270.984955 79.484459,270.991913 79.513527,270.984955 
z"/>
<path fill="#626262" opacity="1.000000" stroke="none" 
	d="
M152.002548,37.991993 
	C156.305420,40.133888 160.731918,42.067631 164.853073,44.515461 
	C166.613617,45.561184 167.737274,47.679173 169.047531,49.191273 
	C173.676987,48.516506 178.655182,47.834190 183.615128,47.038258 
	C184.892258,46.833321 186.487961,46.637768 187.294861,45.810940 
	C191.376282,41.628605 196.226883,43.326851 200.843613,43.879673 
	C204.021805,44.260242 204.954010,46.371368 204.677460,49.641220 
	C203.952286,58.214817 199.650452,65.339859 195.010193,71.969604 
	C190.836304,77.933060 191.058868,84.738205 189.238159,91.106339 
	C188.090256,95.121262 193.995621,100.479851 198.652771,99.608994 
	C202.098755,98.964622 203.442474,100.474289 204.264679,102.880920 
	C205.500961,106.499649 206.966064,109.590805 211.211334,110.333977 
	C211.746216,110.427605 212.162781,111.200302 212.633011,111.659576 
	C215.400513,114.362747 218.167664,117.066284 221.597382,120.416847 
	C221.007248,123.161568 218.423981,125.551750 214.851379,125.692162 
	C210.574524,125.860252 205.868378,127.391121 202.025314,123.630569 
	C201.497360,123.113937 198.970703,123.507423 198.728806,124.067101 
	C198.228439,125.224731 198.115219,127.141144 198.776703,128.103607 
	C201.200333,131.629990 203.631760,135.299774 206.745636,138.172714 
	C213.716599,144.604279 217.067429,151.791794 213.156372,161.463409 
	C210.665588,162.519943 208.553284,162.883362 205.982269,159.784470 
	C203.689636,157.021103 200.583725,159.640472 198.847809,161.668335 
	C194.741653,166.465088 187.225754,167.800507 181.803131,163.920059 
	C180.576309,165.043839 179.280258,166.231049 178.323212,167.107712 
	C181.304703,172.748428 184.288788,177.930130 186.666595,183.376526 
	C187.037247,184.225494 184.643616,186.281296 183.620621,187.654953 
	C182.928391,187.491226 182.477753,187.524994 182.327881,187.328903 
	C176.686615,179.948532 176.753967,180.036667 169.025055,185.442490 
	C160.652740,191.298340 159.334076,199.691299 160.178299,209.570663 
	C158.437073,209.686615 156.698929,209.797607 154.961517,209.918930 
	C149.350754,210.310745 147.067551,213.634979 148.323929,219.035889 
	C148.892944,221.481888 148.413406,224.185898 149.066238,226.594894 
	C149.984238,229.982315 150.815536,233.768051 152.925980,236.379700 
	C157.354309,241.859604 153.161819,250.020126 147.846207,250.536057 
	C145.173798,250.795410 143.205582,250.309067 142.967300,246.848633 
	C142.852371,245.179489 141.750229,243.291946 140.542664,242.033325 
	C134.940811,236.194702 128.785385,230.849579 123.542625,224.716980 
	C119.893700,220.448730 118.980804,214.959106 121.027603,209.348526 
	C122.167274,206.224503 124.469383,202.960327 119.760834,200.478699 
	C119.372162,200.273865 119.819748,197.067886 120.749733,196.059814 
	C122.916008,193.711594 123.270279,191.579956 122.551712,188.431473 
	C121.605522,184.285690 121.489006,179.897156 121.550331,175.620667 
	C121.562347,174.782455 123.982407,173.328629 125.338600,173.271637 
	C131.440567,173.015213 137.559372,173.159805 143.132782,173.159805 
	C143.521286,166.935837 143.531296,161.524139 144.281296,156.217010 
	C145.052979,150.756393 146.831329,150.200394 151.539703,153.137131 
	C153.774002,154.530746 156.298325,155.575775 158.252930,157.281128 
	C166.525528,164.498871 179.086533,159.512497 184.884659,153.380081 
	C185.529175,152.698395 185.449188,150.433731 184.805084,149.591568 
	C182.385818,146.428268 170.958649,143.515488 167.314453,145.145798 
	C166.225174,145.633163 165.479813,147.283676 164.950089,148.556595 
	C163.027527,153.176590 161.603668,153.646118 157.021835,151.443924 
	C154.095535,150.037415 151.027863,148.869171 147.930176,147.889465 
	C144.169754,146.700165 142.858185,144.159866 143.637604,138.744217 
	C143.899078,138.593155 144.182205,138.282654 144.443253,138.300232 
	C151.124008,138.749908 151.589630,138.270950 151.146561,131.304489 
	C150.782990,125.588051 153.259537,121.498329 158.521439,119.125748 
	C166.608994,115.479088 169.941772,108.437195 167.392090,100.382843 
	C165.617218,94.776161 169.480499,87.869614 175.365891,86.127731 
	C183.205933,83.807335 186.041580,75.596069 180.961121,67.413071 
	C178.402481,70.771530 176.059250,73.847252 173.391830,77.348511 
	C170.862595,74.953758 168.669952,73.186691 166.863678,71.087219 
	C164.731781,68.609261 163.890594,65.910355 167.108475,63.429276 
	C169.110245,61.885845 169.885559,60.168861 167.656006,58.084972 
	C167.246048,57.701797 167.313934,56.833733 167.100021,56.210503 
	C164.031204,47.269810 163.583923,47.050831 153.857315,48.282413 
	C152.790405,48.417503 150.778748,47.837780 150.609009,47.210049 
	C149.559204,43.327484 146.626343,43.817352 143.640289,43.629135 
	C145.871948,43.642597 148.856003,43.066975 150.552734,44.284840 
	C153.696487,46.541325 156.095673,46.174091 158.779251,44.534214 
	C156.392395,42.229950 154.197479,40.110970 152.002548,37.991993 
z"/>
<path fill="#666666" opacity="1.000000" stroke="none" 
	d="
M151.909836,37.761551 
	C154.197479,40.110970 156.392395,42.229950 158.779251,44.534214 
	C156.095673,46.174091 153.696487,46.541325 150.552734,44.284840 
	C148.856003,43.066975 145.871948,43.642597 143.217621,43.630455 
	C142.450836,44.453346 141.935120,45.054855 140.870804,45.989483 
	C139.348831,48.721989 138.375443,51.121380 137.402069,53.520771 
	C137.402069,53.520771 137.469620,53.472347 137.027069,53.407524 
	C133.717575,53.765961 130.850632,54.189220 127.983681,54.612480 
	C127.518730,54.668808 127.053772,54.725132 125.977615,54.796051 
	C122.800362,57.704327 120.242027,60.436470 115.684471,59.076046 
	C115.014023,58.875919 113.878906,60.232456 112.958778,60.868752 
	C112.758987,61.169464 112.559204,61.470177 111.830307,62.051826 
	C106.324318,67.986420 106.494438,71.421219 111.929756,75.023811 
	C112.211487,75.214561 112.493210,75.405319 112.864807,76.247101 
	C112.275055,79.862762 111.595451,82.827400 110.915848,85.792030 
	C110.915848,85.792030 110.931068,85.902672 110.549149,85.979683 
	C108.764297,87.007271 107.361374,87.957848 105.958443,88.908417 
	C105.958443,88.908417 105.974838,88.966125 105.543884,89.022675 
	C97.429596,90.445343 89.633499,92.606773 83.086998,85.955910 
	C83.086998,85.955910 83.027969,85.968307 82.837143,85.678223 
	C79.054321,84.481377 75.482674,83.481689 71.865456,82.690201 
	C66.758232,81.572670 63.608562,83.648010 64.337463,88.780655 
	C65.156326,94.546722 67.428085,100.116173 69.186874,105.733864 
	C69.820091,107.756401 71.258492,109.628563 71.443810,111.650513 
	C71.550728,112.817024 70.127190,114.633774 68.932915,115.217323 
	C68.222359,115.564522 65.983612,114.381737 65.520866,113.382507 
	C62.209007,106.231087 55.920898,103.244484 49.017220,100.993637 
	C48.742012,100.814194 48.466808,100.634750 47.920063,99.941452 
	C44.414711,95.753326 41.608738,91.494385 36.077114,90.960335 
	C36.077114,90.960335 36.020550,90.975899 35.830482,90.722092 
	C34.788319,89.968842 33.936222,89.469406 33.084129,88.969963 
	C32.472641,88.467674 31.861153,87.965385 31.087627,86.884506 
	C30.348669,83.571007 31.220034,82.511856 34.069096,83.432068 
	C36.269089,84.142632 38.499222,84.818130 40.764893,85.255943 
	C47.005558,86.461876 50.652641,83.978661 50.764317,77.718231 
	C50.854378,72.669304 50.420338,67.473640 49.225040,62.586109 
	C48.388664,59.166214 45.876801,56.156086 44.113251,52.962944 
	C43.167271,52.119431 42.221287,51.275921 40.985271,49.841438 
	C39.051403,48.260784 37.516304,46.751774 35.743000,46.380497 
	C30.770824,45.339478 25.714283,44.652920 20.665014,44.041237 
	C14.751908,43.324902 14.301763,42.759460 15.937896,36.846943 
	C16.012514,28.925228 21.402536,23.655445 25.805424,18.071505 
	C26.947565,16.622988 30.240978,16.656364 32.584183,16.458719 
	C33.774700,16.358299 35.041203,17.282593 36.287766,17.700668 
	C40.957043,19.266657 45.824818,21.996754 48.623932,14.862490 
	C49.093430,13.665837 50.774933,12.944710 52.030704,11.891201 
	C55.983334,14.792573 59.688526,17.590790 63.477036,20.271250 
	C67.300713,22.976595 71.215958,23.731571 74.113884,20.795181 
	C78.593964,22.101877 82.237518,23.164585 85.984589,24.859564 
	C88.351593,29.826134 91.583374,27.738876 94.601028,26.728628 
	C97.069084,25.902380 99.490929,24.938114 101.933258,24.035034 
	C101.933258,24.035036 101.986855,24.014521 102.033478,24.387634 
	C103.719231,26.507467 105.358353,28.254183 106.997475,30.000900 
	C107.442261,30.038651 107.887054,30.076401 108.783089,30.426025 
	C113.493767,32.785854 116.801643,30.497347 118.380981,24.409931 
	C118.380981,24.409931 118.391556,24.367786 118.935814,24.384525 
	C120.174355,24.383123 120.868645,24.364979 121.562927,24.346836 
	C121.562927,24.346836 121.612190,24.344149 121.657104,24.723064 
	C126.137848,29.066305 130.573685,33.030632 135.009521,36.994957 
	C135.009521,36.994957 134.998779,37.001244 135.128174,37.284988 
	C136.808975,40.598263 138.855896,40.848099 140.976807,38.299129 
	C143.987656,34.680614 147.313156,34.746494 151.002121,36.999249 
	C151.346771,37.064705 151.618439,37.241989 151.909836,37.761551 
z"/>
<path fill="#626262" opacity="1.000000" stroke="none" 
	d="
M113.389732,60.854202 
	C113.878906,60.232456 115.014023,58.875919 115.684471,59.076046 
	C120.242027,60.436470 122.800362,57.704327 125.625687,54.781723 
	C124.044899,58.070141 124.828796,60.415562 128.427017,61.794357 
	C131.968231,63.151302 135.680344,64.228165 138.942291,66.086487 
	C140.932709,67.220421 142.214691,69.597900 143.814865,71.416847 
	C141.913651,72.240944 140.058762,73.212502 138.092667,73.829987 
	C137.031616,74.163231 135.753723,73.730606 134.619461,73.919106 
	C129.332993,74.797630 126.116188,72.555016 124.402870,67.599632 
	C122.683174,62.625774 119.388474,59.897594 113.389732,60.854202 
z"/>
<path fill="#626262" opacity="1.000000" stroke="none" 
	d="
M49.156975,101.305176 
	C55.920898,103.244484 62.209007,106.231087 65.520866,113.382507 
	C65.983612,114.381737 68.222359,115.564522 68.932915,115.217323 
	C70.127190,114.633774 71.550728,112.817024 71.443810,111.650513 
	C71.258492,109.628563 69.820091,107.756401 69.186874,105.733864 
	C67.428085,100.116173 65.156326,94.546722 64.337463,88.780655 
	C63.608562,83.648010 66.758232,81.572670 71.865456,82.690201 
	C75.482674,83.481689 79.054321,84.481377 82.843155,85.648666 
	C78.978386,85.375824 74.867264,85.078041 70.870071,84.238098 
	C67.370270,83.502693 65.743050,84.515533 65.808670,88.084641 
	C65.929306,94.646263 67.674110,100.660339 71.400703,106.162109 
	C72.630569,107.977821 73.568130,110.302299 73.719704,112.458778 
	C73.908302,115.141983 73.048615,117.854065 69.423759,117.844757 
	C66.288307,117.836708 64.267281,117.082184 62.763683,113.479118 
	C61.420410,110.260246 57.805313,107.913254 54.985592,105.415298 
	C53.294643,103.917313 51.206402,102.867798 49.156975,101.305176 
z"/>
<path fill="#626262" opacity="1.000000" stroke="none" 
	d="
M44.165539,53.342545 
	C45.876801,56.156086 48.388664,59.166214 49.225040,62.586109 
	C50.420338,67.473640 50.854378,72.669304 50.764317,77.718231 
	C50.652641,83.978661 47.005558,86.461876 40.764893,85.255943 
	C38.499222,84.818130 36.269089,84.142632 34.069096,83.432068 
	C31.220034,82.511856 30.348669,83.571007 30.979111,86.602753 
	C29.713108,86.021172 28.048973,85.390579 27.182768,84.186134 
	C26.486080,83.217377 26.403997,81.447701 26.766954,80.251122 
	C26.913677,79.767418 29.039291,79.523216 30.142706,79.753357 
	C34.743553,80.712997 39.264675,82.073593 43.880676,82.935677 
	C47.315308,83.577126 48.672291,81.046684 48.919041,78.241302 
	C49.222187,74.794716 49.575405,71.173828 48.852608,67.858131 
	C47.801941,63.038387 45.808971,58.424068 44.165539,53.342545 
z"/>
<path fill="#242424" opacity="1.000000" stroke="none" 
	d="
M47.866875,272.936218 
	C48.022362,271.647980 48.177849,270.359772 48.377865,268.702606 
	C51.421997,269.987488 54.176189,271.149963 57.046593,272.361481 
	C62.846752,267.469147 67.184837,268.208710 72.193893,276.104706 
	C67.695358,275.604980 63.995762,275.194031 59.509502,274.695648 
	C56.506069,278.895203 53.826248,273.760803 50.116196,272.220886 
	C48.965057,272.467407 48.415966,272.701813 47.866875,272.936218 
z"/>
<path fill="#626262" opacity="1.000000" stroke="none" 
	d="
M15.571907,36.904995 
	C14.301763,42.759460 14.751908,43.324902 20.665014,44.041237 
	C25.714283,44.652920 30.770824,45.339478 35.743000,46.380497 
	C37.516304,46.751774 39.051403,48.260784 40.873558,49.540436 
	C33.170177,48.497795 25.228035,47.431850 17.444124,45.667744 
	C15.151335,45.148113 13.306267,42.652962 11.256014,41.063164 
	C12.572649,39.696457 13.889283,38.329754 15.571907,36.904995 
z"/>
<path fill="#262626" opacity="1.000000" stroke="none" 
	d="
M100.907516,272.156433 
	C99.890945,273.360291 98.881599,275.584045 97.856537,275.591309 
	C93.438599,275.622650 89.016060,275.004028 84.595184,274.622070 
	C84.761734,273.246429 84.928284,271.870758 85.376076,270.484985 
	C86.149590,270.706390 86.641846,270.937927 87.134109,271.169434 
	C87.846375,271.117432 88.558647,271.065399 89.560333,271.210144 
	C89.900543,271.824005 89.951340,272.241089 90.002129,272.658173 
	C90.392914,272.127563 90.783707,271.596985 91.174492,271.066376 
	C94.226707,271.048492 96.801994,274.989990 100.527260,272.143250 
	C100.860710,272.133728 100.907516,272.156433 100.907516,272.156433 
z"/>
<path fill="#626262" opacity="1.000000" stroke="none" 
	d="
M150.972687,36.638130 
	C147.313156,34.746494 143.987656,34.680614 140.976807,38.299129 
	C138.855896,40.848099 136.808975,40.598263 135.131134,37.279755 
	C140.760452,37.419453 143.623932,32.905415 147.780624,29.374567 
	C148.878479,31.770645 149.910858,34.023827 150.972687,36.638130 
z"/>
<path fill="#212121" opacity="1.000000" stroke="none" 
	d="
M179.105576,271.416443 
	C180.723099,271.984833 182.072815,272.709503 183.422531,273.434174 
	C182.177704,274.197693 180.965118,275.555939 179.682648,275.625519 
	C172.781937,275.999847 172.107498,275.377625 172.718735,271.959686 
	C175.117050,271.808014 176.977417,271.690369 179.105576,271.416443 
z"/>
<path fill="#1E1E1E" opacity="1.000000" stroke="none" 
	d="
M140.081451,270.108887 
	C141.669312,270.168365 143.271835,269.760223 144.374619,270.326050 
	C145.602646,270.956116 146.375946,272.472504 147.347198,273.603088 
	C146.250916,274.295990 145.082581,275.654724 144.073105,275.545441 
	C141.861099,275.306091 139.729614,274.322693 137.565262,273.643127 
	C136.969238,272.916260 136.373215,272.189362 135.777191,271.462463 
	C137.143341,270.998627 138.509491,270.534760 140.081451,270.108887 
z"/>
<path fill="#252525" opacity="1.000000" stroke="none" 
	d="
M112.145035,271.138794 
	C112.881889,271.090729 113.618744,271.042633 114.535934,271.228271 
	C114.809296,271.863281 114.902321,272.264526 114.995361,272.665802 
	C115.387146,272.131683 115.778923,271.597565 116.170700,271.063446 
	C117.348244,271.951355 118.525795,272.839233 119.703354,273.727142 
	C118.406982,274.433075 117.178841,275.484467 115.796967,275.757324 
	C114.073242,276.097687 112.180855,276.031677 110.436508,275.720062 
	C107.436989,275.184265 106.124374,273.857849 109.420486,271.542236 
	C109.924301,272.175140 110.190544,272.679260 110.456772,273.183380 
	C111.019524,272.501831 111.582275,271.820312 112.145035,271.138794 
z"/>
<path fill="#626262" opacity="1.000000" stroke="none" 
	d="
M83.208107,86.274765 
	C89.633499,92.606773 97.429596,90.445343 105.514236,89.018082 
	C99.251816,95.231148 88.775826,94.134995 83.208107,86.274765 
z"/>
<path fill="#626262" opacity="1.000000" stroke="none" 
	d="
M134.953491,36.649734 
	C130.573685,33.030632 126.137848,29.066305 121.654404,24.747583 
	C126.832909,27.475576 131.317032,31.385889 134.953491,36.649734 
z"/>
<path fill="#626262" opacity="1.000000" stroke="none" 
	d="
M101.783913,23.700882 
	C99.490929,24.938114 97.069084,25.902380 94.601028,26.728628 
	C91.583374,27.738876 88.351593,29.826134 86.060211,25.205032 
	C89.386894,26.272675 92.300537,26.574015 95.341057,23.575346 
	C96.439285,22.492247 99.480171,23.378918 101.783913,23.700882 
z"/>
<path fill="#242424" opacity="1.000000" stroke="none" 
	d="
M159.653488,272.388245 
	C161.441605,270.238800 163.373444,269.363953 165.041565,271.796692 
	C165.554977,272.545380 164.895798,275.234619 164.341415,275.379272 
	C162.120636,275.958801 159.629410,276.054352 159.653488,272.388245 
z"/>
<path fill="#626262" opacity="1.000000" stroke="none" 
	d="
M111.861786,74.649078 
	C106.494438,71.421219 106.324318,67.986420 111.567505,62.141785 
	C110.542824,66.054504 108.238083,70.154915 111.861786,74.649078 
z"/>
<path fill="#626262" opacity="1.000000" stroke="none" 
	d="
M36.207260,91.279579 
	C41.608738,91.494385 44.414711,95.753326 47.826248,99.708008 
	C46.615788,99.576500 44.933739,99.525780 43.896786,98.682137 
	C41.224709,96.508217 38.838074,93.983429 36.207260,91.279579 
z"/>
<path fill="#626262" opacity="1.000000" stroke="none" 
	d="
M118.121002,24.619434 
	C116.801643,30.497347 113.493767,32.785854 109.110306,30.496861 
	C111.944519,28.446859 114.902779,26.637899 118.121002,24.619434 
z"/>
<path fill="#2B2B2B" opacity="1.000000" stroke="none" 
	d="
M47.658463,272.829437 
	C48.415966,272.701813 48.965057,272.467407 49.789371,272.117126 
	C50.028893,276.940735 46.603455,275.583069 43.682941,275.616028 
	C43.474628,272.370056 43.850410,270.326385 47.658463,272.829437 
z"/>
<path fill="#626262" opacity="1.000000" stroke="none" 
	d="
M111.279526,85.778206 
	C111.595451,82.827400 112.275055,79.862762 112.963295,76.487877 
	C116.162880,79.599556 115.807182,82.192711 111.279526,85.778206 
z"/>
<path fill="#626262" opacity="1.000000" stroke="none" 
	d="
M128.415604,54.690521 
	C130.850632,54.189220 133.717575,53.765961 137.051285,53.441307 
	C134.627884,53.949463 131.737701,54.359013 128.415604,54.690521 
z"/>
<path fill="#626262" opacity="1.000000" stroke="none" 
	d="
M137.682892,53.310230 
	C138.375443,51.121380 139.348831,48.721989 140.609909,46.144783 
	C139.919647,48.344536 138.941681,50.722115 137.682892,53.310230 
z"/>
<path fill="#626262" opacity="1.000000" stroke="none" 
	d="
M106.946640,29.664566 
	C105.358353,28.254183 103.719231,26.507467 102.022324,24.414070 
	C103.608299,25.821005 105.252060,27.574617 106.946640,29.664566 
z"/>
<path fill="#010101" opacity="1.000000" stroke="none" 
	d="
M111.905319,271.088867 
	C111.582275,271.820312 111.019524,272.501831 110.456772,273.183380 
	C110.190544,272.679260 109.924301,272.175140 109.697693,271.440796 
	C110.380089,271.153381 111.022842,271.096161 111.905319,271.088867 
z"/>
<path fill="#626262" opacity="1.000000" stroke="none" 
	d="
M106.296097,88.875107 
	C107.361374,87.957848 108.764297,87.007271 110.493828,85.987289 
	C109.424873,86.892525 108.029312,87.867165 106.296097,88.875107 
z"/>
<path fill="#252525" opacity="1.000000" stroke="none" 
	d="
M122.472610,272.645233 
	C122.581970,272.895355 122.626328,273.169342 122.670685,273.443298 
	C122.582993,273.185211 122.495308,272.927155 122.472610,272.645233 
z"/>
<path fill="#010101" opacity="1.000000" stroke="none" 
	d="
M90.877228,271.049927 
	C90.783707,271.596985 90.392914,272.127563 90.002129,272.658173 
	C89.951340,272.241089 89.900543,271.824005 89.917496,271.205505 
	C90.183487,271.013916 90.381729,271.023682 90.877228,271.049927 
z"/>
<path fill="#010101" opacity="1.000000" stroke="none" 
	d="
M115.827423,271.061951 
	C115.778923,271.597565 115.387146,272.131683 114.995361,272.665802 
	C114.902321,272.264526 114.809296,271.863281 114.756943,271.261963 
	C115.026451,271.061432 115.255302,271.060944 115.827423,271.061951 
z"/>
<path fill="#010101" opacity="1.000000" stroke="none" 
	d="
M76.393936,270.736084 
	C76.443909,270.751709 76.293549,271.042694 76.293549,271.042694 
	C76.293549,271.042694 76.343956,270.720490 76.393936,270.736084 
z"/>
<path fill="#626262" opacity="1.000000" stroke="none" 
	d="
M33.197063,89.272415 
	C33.936222,89.469406 34.788319,89.968842 35.838158,90.693779 
	C35.127262,90.471146 34.218628,90.023010 33.197063,89.272415 
z"/>
<path fill="#010101" opacity="1.000000" stroke="none" 
	d="
M86.870964,270.974731 
	C86.641846,270.937927 86.149590,270.706390 85.588730,270.256226 
	C85.882706,270.285065 86.245270,270.532562 86.870964,270.974731 
z"/>
<path fill="#626262" opacity="1.000000" stroke="none" 
	d="
M121.388519,24.126026 
	C120.868645,24.364979 120.174355,24.383123 118.956711,24.390469 
	C119.360268,24.221519 120.287186,24.063370 121.388519,24.126026 
z"/>
<path fill="#010101" opacity="1.000000" stroke="none" 
	d="
M79.498993,270.988434 
	C79.484459,270.991913 79.513527,270.984955 79.498993,270.988434 
z"/>
<path fill="#010101" opacity="1.000000" stroke="none" 
	d="
M100.844559,272.113342 
	C100.828400,272.092987 100.944366,272.105927 100.925941,272.131165 
	C100.907516,272.156433 100.860710,272.133728 100.844559,272.113342 
z"/>
</svg>