<svg xmlns="http://www.w3.org/2000/svg" viewBox="0 0 231 280" preserveAspectRatio="xMidYMid meet"><defs><linearGradient id="g" x1="0" y1="0" x2="1" y2="1"><stop offset="0" stop-color="#4F7CFF"/><stop offset="1" stop-color="#1E40AF"/></linearGradient></defs><g fill="url(#g)" stroke="rgba(255,255,255,.22)" stroke-width="0.5" stroke-linejoin="round"><path d="M152.0,38.0 C156.3,40.1 160.7,42.1 164.9,44.5 C166.6,45.6 167.7,47.7 169.0,49.2 C173.7,48.5 178.7,47.8 183.6,47.0 C184.9,46.8 186.5,46.6 187.3,45.8 C191.4,41.6 196.2,43.3 200.8,43.9 C204.0,44.3 205.0,46.4 204.7,49.6 C204.0,58.2 199.7,65.3 195.0,72.0 C190.8,77.9 191.1,84.7 189.2,91.1 C188.1,95.1 194.0,100.5 198.7,99.6 C202.1,99.0 203.4,100.5 204.3,102.9 C205.5,106.5 207.0,109.6 211.2,110.3 C211.7,110.4 212.2,111.2 212.6,111.7 C215.4,114.4 218.2,117.1 221.6,120.4 C221.0,123.2 218.4,125.6 214.9,125.7 C210.6,125.9 205.9,127.4 202.0,123.6 C201.5,123.1 199.0,123.5 198.7,124.1 C198.2,125.2 198.1,127.1 198.8,128.1 C201.2,131.6 203.6,135.3 206.7,138.2 C213.7,144.6 217.1,151.8 213.2,161.5 C210.7,162.5 208.6,162.9 206.0,159.8 C203.7,157.0 200.6,159.6 198.8,161.7 C194.7,166.5 187.2,167.8 181.8,163.9 C180.6,165.0 179.3,166.2 178.3,167.1 C181.3,172.7 184.3,177.9 186.7,183.4 C187.0,184.2 184.6,186.3 183.6,187.7 C182.9,187.5 182.5,187.5 182.3,187.3 C176.7,179.9 176.8,180.0 169.0,185.4 C160.7,191.3 159.3,199.7 160.2,209.6 C158.4,209.7 156.7,209.8 155.0,209.9 C149.4,210.3 147.1,213.6 148.3,219.0 C148.9,221.5 148.4,224.2 149.1,226.6 C150.0,230.0 150.8,233.8 152.9,236.4 C157.4,241.9 153.2,250.0 147.8,250.5 C145.2,250.8 143.2,250.3 143.0,246.8 C142.9,245.2 141.8,243.3 140.5,242.0 C134.9,236.2 128.8,230.8 123.5,224.7 C119.9,220.4 119.0,215.0 121.0,209.3 C122.2,206.2 124.5,203.0 119.8,200.5 C119.4,200.3 119.8,197.1 120.7,196.1 C122.9,193.7 123.3,191.6 122.6,188.4 C121.6,184.3 121.5,179.9 121.6,175.6 C121.6,174.8 124.0,173.3 125.3,173.3 C131.4,173.0 137.6,173.2 143.1,173.2 C143.5,166.9 143.5,161.5 144.3,156.2 C145.1,150.8 146.8,150.2 151.5,153.1 C153.8,154.5 156.3,155.6 158.3,157.3 C166.5,164.5 179.1,159.5 184.9,153.4 C185.5,152.7 185.4,150.4 184.8,149.6 C182.4,146.4 171.0,143.5 167.3,145.1 C166.2,145.6 165.5,147.3 165.0,148.6 C163.0,153.2 161.6,153.6 157.0,151.4 C154.1,150.0 151.0,148.9 147.9,147.9 C144.2,146.7 142.9,144.2 143.6,138.7 C143.9,138.6 144.2,138.3 144.4,138.3 C151.1,138.7 151.6,138.3 151.1,131.3 C150.8,125.6 153.3,121.5 158.5,119.1 C166.6,115.5 169.9,108.4 167.4,100.4 C165.6,94.8 169.5,87.9 175.4,86.1 C183.2,83.8 186.0,75.6 181.0,67.4 C178.4,70.8 176.1,73.8 173.4,77.3 C170.9,75.0 168.7,73.2 166.9,71.1 C164.7,68.6 163.9,65.9 167.1,63.4 C169.1,61.9 169.9,60.2 167.7,58.1 C167.2,57.7 167.3,56.8 167.1,56.2 C164.0,47.3 163.6,47.1 153.9,48.3 C152.8,48.4 150.8,47.8 150.6,47.2 C149.6,43.3 146.6,43.8 143.6,43.6 C145.9,43.6 148.9,43.1 150.6,44.3 C153.7,46.5 156.1,46.2 158.8,44.5 C156.4,42.2 154.2,40.1 152.0,38.0 z"/><path d="M151.9,37.8 C154.2,40.1 156.4,42.2 158.8,44.5 C156.1,46.2 153.7,46.5 150.6,44.3 C148.9,43.1 145.9,43.6 143.2,43.6 C142.5,44.5 141.9,45.1 140.9,46.0 C139.3,48.7 138.4,51.1 137.4,53.5 C137.4,53.5 137.5,53.5 137.0,53.4 C133.7,53.8 130.9,54.2 128.0,54.6 C127.5,54.7 127.1,54.7 126.0,54.8 C122.8,57.7 120.2,60.4 115.7,59.1 C115.0,58.9 113.9,60.2 113.0,60.9 C112.8,61.2 112.6,61.5 111.8,62.1 C106.3,68.0 106.5,71.4 111.9,75.0 C112.2,75.2 112.5,75.4 112.9,76.2 C112.3,79.9 111.6,82.8 110.9,85.8 C110.9,85.8 110.9,85.9 110.5,86.0 C108.8,87.0 107.4,88.0 106.0,88.9 C106.0,88.9 106.0,89.0 105.5,89.0 C97.4,90.4 89.6,92.6 83.1,86.0 C83.1,86.0 83.0,86.0 82.8,85.7 C79.1,84.5 75.5,83.5 71.9,82.7 C66.8,81.6 63.6,83.6 64.3,88.8 C65.2,94.5 67.4,100.1 69.2,105.7 C69.8,107.8 71.3,109.6 71.4,111.7 C71.6,112.8 70.1,114.6 68.9,115.2 C68.2,115.6 66.0,114.4 65.5,113.4 C62.2,106.2 55.9,103.2 49.0,101.0 C48.7,100.8 48.5,100.6 47.9,99.9 C44.4,95.8 41.6,91.5 36.1,91.0 C36.1,91.0 36.0,91.0 35.8,90.7 C34.8,90.0 33.9,89.5 33.1,89.0 C32.5,88.5 31.9,88.0 31.1,86.9 C30.3,83.6 31.2,82.5 34.1,83.4 C36.3,84.1 38.5,84.8 40.8,85.3 C47.0,86.5 50.7,84.0 50.8,77.7 C50.9,72.7 50.4,67.5 49.2,62.6 C48.4,59.2 45.9,56.2 44.1,53.0 C43.2,52.1 42.2,51.3 41.0,49.8 C39.1,48.3 37.5,46.8 35.7,46.4 C30.8,45.3 25.7,44.7 20.7,44.0 C14.8,43.3 14.3,42.8 15.9,36.8 C16.0,28.9 21.4,23.7 25.8,18.1 C26.9,16.6 30.2,16.7 32.6,16.5 C33.8,16.4 35.0,17.3 36.3,17.7 C41.0,19.3 45.8,22.0 48.6,14.9 C49.1,13.7 50.8,12.9 52.0,11.9 C56.0,14.8 59.7,17.6 63.5,20.3 C67.3,23.0 71.2,23.7 74.1,20.8 C78.6,22.1 82.2,23.2 86.0,24.9 C88.4,29.8 91.6,27.7 94.6,26.7 C97.1,25.9 99.5,24.9 101.9,24.0 C101.9,24.0 102.0,24.0 102.0,24.4 C103.7,26.5 105.4,28.3 107.0,30.0 C107.4,30.0 107.9,30.1 108.8,30.4 C113.5,32.8 116.8,30.5 118.4,24.4 C118.4,24.4 118.4,24.4 118.9,24.4 C120.2,24.4 120.9,24.4 121.6,24.3 C121.6,24.3 121.6,24.3 121.7,24.7 C126.1,29.1 130.6,33.0 135.0,37.0 C135.0,37.0 135.0,37.0 135.1,37.3 C136.8,40.6 138.9,40.8 141.0,38.3 C144.0,34.7 147.3,34.7 151.0,37.0 C151.3,37.1 151.6,37.2 151.9,37.8 z"/><path d="M113.4,60.9 C113.9,60.2 115.0,58.9 115.7,59.1 C120.2,60.4 122.8,57.7 125.6,54.8 C124.0,58.1 124.8,60.4 128.4,61.8 C132.0,63.2 135.7,64.2 138.9,66.1 C140.9,67.2 142.2,69.6 143.8,71.4 C141.9,72.2 140.1,73.2 138.1,73.8 C137.0,74.2 135.8,73.7 134.6,73.9 C129.3,74.8 126.1,72.6 124.4,67.6 C122.7,62.6 119.4,59.9 113.4,60.9 z"/><path d="M49.2,101.3 C55.9,103.2 62.2,106.2 65.5,113.4 C66.0,114.4 68.2,115.6 68.9,115.2 C70.1,114.6 71.6,112.8 71.4,111.7 C71.3,109.6 69.8,107.8 69.2,105.7 C67.4,100.1 65.2,94.5 64.3,88.8 C63.6,83.6 66.8,81.6 71.9,82.7 C75.5,83.5 79.1,84.5 82.8,85.6 C79.0,85.4 74.9,85.1 70.9,84.2 C67.4,83.5 65.7,84.5 65.8,88.1 C65.9,94.6 67.7,100.7 71.4,106.2 C72.6,108.0 73.6,110.3 73.7,112.5 C73.9,115.1 73.0,117.9 69.4,117.8 C66.3,117.8 64.3,117.1 62.8,113.5 C61.4,110.3 57.8,107.9 55.0,105.4 C53.3,103.9 51.2,102.9 49.2,101.3 z"/><path d="M44.2,53.3 C45.9,56.2 48.4,59.2 49.2,62.6 C50.4,67.5 50.9,72.7 50.8,77.7 C50.7,84.0 47.0,86.5 40.8,85.3 C38.5,84.8 36.3,84.1 34.1,83.4 C31.2,82.5 30.3,83.6 31.0,86.6 C29.7,86.0 28.0,85.4 27.2,84.2 C26.5,83.2 26.4,81.4 26.8,80.3 C26.9,79.8 29.0,79.5 30.1,79.8 C34.7,80.7 39.3,82.1 43.9,82.9 C47.3,83.6 48.7,81.0 48.9,78.2 C49.2,74.8 49.6,71.2 48.9,67.9 C47.8,63.0 45.8,58.4 44.2,53.3 z"/><path d="M15.6,36.9 C14.3,42.8 14.8,43.3 20.7,44.0 C25.7,44.7 30.8,45.3 35.7,46.4 C37.5,46.8 39.1,48.3 40.9,49.5 C33.2,48.5 25.2,47.4 17.4,45.7 C15.2,45.1 13.3,42.7 11.3,41.1 C12.6,39.7 13.9,38.3 15.6,36.9 z"/><path d="M151.0,36.6 C147.3,34.7 144.0,34.7 141.0,38.3 C138.9,40.8 136.8,40.6 135.1,37.3 C140.8,37.4 143.6,32.9 147.8,29.4 C148.9,31.8 149.9,34.0 151.0,36.6 z"/><path d="M83.2,86.3 C89.6,92.6 97.4,90.4 105.5,89.0 C99.3,95.2 88.8,94.1 83.2,86.3 z"/><path d="M135.0,36.6 C130.6,33.0 126.1,29.1 121.7,24.7 C126.8,27.5 131.3,31.4 135.0,36.6 z"/><path d="M101.8,23.7 C99.5,24.9 97.1,25.9 94.6,26.7 C91.6,27.7 88.4,29.8 86.1,25.2 C89.4,26.3 92.3,26.6 95.3,23.6 C96.4,22.5 99.5,23.4 101.8,23.7 z"/><path d="M111.9,74.6 C106.5,71.4 106.3,68.0 111.6,62.1 C110.5,66.1 108.2,70.2 111.9,74.6 z"/><path d="M36.2,91.3 C41.6,91.5 44.4,95.8 47.8,99.7 C46.6,99.6 44.9,99.5 43.9,98.7 C41.2,96.5 38.8,94.0 36.2,91.3 z"/><path d="M118.1,24.6 C116.8,30.5 113.5,32.8 109.1,30.5 C111.9,28.4 114.9,26.6 118.1,24.6 z"/><path d="M111.3,85.8 C111.6,82.8 112.3,79.9 113.0,76.5 C116.2,79.6 115.8,82.2 111.3,85.8 z"/><path d="M128.4,54.7 C130.9,54.2 133.7,53.8 137.1,53.4 C134.6,53.9 131.7,54.4 128.4,54.7 z"/><path d="M137.7,53.3 C138.4,51.1 139.3,48.7 140.6,46.1 C139.9,48.3 138.9,50.7 137.7,53.3 z"/><path d="M106.9,29.7 C105.4,28.3 103.7,26.5 102.0,24.4 C103.6,25.8 105.3,27.6 106.9,29.7 z"/><path d="M106.3,88.9 C107.4,88.0 108.8,87.0 110.5,86.0 C109.4,86.9 108.0,87.9 106.3,88.9 z"/><path d="M33.2,89.3 C33.9,89.5 34.8,90.0 35.8,90.7 C35.1,90.5 34.2,90.0 33.2,89.3 z"/><path d="M121.4,24.1 C120.9,24.4 120.2,24.4 119.0,24.4 C119.4,24.2 120.3,24.1 121.4,24.1 z"/></g></svg>